<svg width="21" height="16" viewBox="0 0 21 16" fill="none" xmlns="http://www.w3.org/2000/svg">
<path d="M1.45833 0.708328H8.75C9.13677 0.708328 9.50771 0.861974 9.7812 1.13546C10.0547 1.40895 10.2083 1.77989 10.2083 2.16666C10.2083 2.55344 10.0547 2.92437 9.7812 3.19786C9.50771 3.47135 9.13677 3.62499 8.75 3.62499H1.45833C1.07156 3.62499 0.700626 3.47135 0.427136 3.19786C0.153645 2.92437 0 2.55344 0 2.16666C0 1.77989 0.153645 1.40895 0.427136 1.13546C0.700626 0.861974 1.07156 0.708328 1.45833 0.708328ZM11.6667 12.375H18.9583C19.3451 12.375 19.716 12.5286 19.9895 12.8021C20.263 13.0756 20.4167 13.4466 20.4167 13.8333C20.4167 14.2201 20.263 14.591 19.9895 14.8645C19.716 15.138 19.3451 15.2917 18.9583 15.2917H11.6667C11.2799 15.2917 10.909 15.138 10.6355 14.8645C10.362 14.591 10.2083 14.2201 10.2083 13.8333C10.2083 13.4466 10.362 13.0756 10.6355 12.8021C10.909 12.5286 11.2799 12.375 11.6667 12.375ZM1.45833 6.54166H18.9583C19.3451 6.54166 19.716 6.69531 19.9895 6.9688C20.263 7.24229 20.4167 7.61322 20.4167 7.99999C20.4167 8.38677 20.263 8.7577 19.9895 9.03119C19.716 9.30468 19.3451 9.45833 18.9583 9.45833H1.45833C1.07156 9.45833 0.700626 9.30468 0.427136 9.03119C0.153645 8.7577 0 8.38677 0 7.99999C0 7.61322 0.153645 7.24229 0.427136 6.9688C0.700626 6.69531 1.07156 6.54166 1.45833 6.54166Z" fill="black"/>
</svg>
