<svg width="48" height="53" viewBox="0 0 48 53" fill="none" xmlns="http://www.w3.org/2000/svg">
<path d="M18.3415 40.6178C17.4272 41.6275 16.7673 42.8411 16.4168 44.1575C16.0663 45.4738 16.0354 46.8549 16.3265 48.1856C6.391 46.7829 0.625 39.773 0.625 32.9375V31C0.625 29.4584 1.23739 27.98 2.32744 26.8899C3.4175 25.7999 4.89593 25.1875 6.4375 25.1875H29.7766C29.8541 27.0591 30.6291 28.8726 32.0319 30.2444L34.0391 32.2051C33.6382 33.9238 32.6654 35.4554 31.2801 36.549L28.2383 35.8283C26.8411 35.4983 25.3809 35.55 24.0106 35.9782C22.6403 36.4063 21.4103 37.195 20.4495 38.2617L18.3415 40.6178ZM20 0C22.8262 0 25.5367 1.12271 27.5351 3.12114C29.5335 5.11958 30.6562 7.83004 30.6562 10.6562C30.6562 13.4825 29.5335 16.1929 27.5351 18.1914C25.5367 20.1898 22.8262 21.3125 20 21.3125C17.1738 21.3125 14.4633 20.1898 12.4649 18.1914C10.4665 16.1929 9.34375 13.4825 9.34375 10.6562C9.34375 7.83004 10.4665 5.11958 12.4649 3.12114C14.4633 1.12271 17.1738 0 20 0ZM33.888 23.5639L34.9846 20.6576C35.9844 18.0226 39.0999 16.7206 41.7271 17.8405L43.2306 18.4837C45.0635 19.2665 46.5825 20.6847 46.9002 22.5912C48.6711 33.1506 39.5067 48.1701 28.959 52.0025C27.0525 52.6922 24.991 52.1575 23.3596 51.0492L22.0189 50.1386C21.4684 49.7679 21.005 49.2821 20.6605 48.7148C20.316 48.1475 20.0987 47.5123 20.0235 46.8529C19.9484 46.1934 20.0172 45.5256 20.2252 44.8953C20.4332 44.2651 20.7755 43.6875 21.2284 43.2024L23.3403 40.8503C23.8353 40.3026 24.4681 39.8977 25.1728 39.6775C25.8775 39.4574 26.6282 39.4302 27.347 39.5986L32.0939 40.7224C35.8565 38.3703 37.8754 35.0649 38.1466 30.8024L34.7444 27.4699C34.235 26.9741 33.8823 26.3397 33.73 25.6454C33.5778 24.951 33.6327 24.2273 33.888 23.5639Z" fill="black"/>
</svg>
