<svg width="62" height="57" viewBox="0 0 62 57" fill="none" xmlns="http://www.w3.org/2000/svg">
<path d="M28.9333 28.4167C28.9333 26.1347 28.126 24.1865 26.5115 22.5719C24.8969 20.9573 22.9486 20.15 20.6667 20.15C18.3847 20.15 16.4365 20.9573 14.8219 22.5719C13.2073 24.1865 12.4 26.1347 12.4 28.4167C12.4 30.6986 13.2073 32.6469 14.8219 34.2615C16.4365 35.876 18.3847 36.6833 20.6667 36.6833C22.9486 36.6833 24.8969 35.876 26.5115 34.2615C28.126 32.6469 28.9333 30.6986 28.9333 28.4167ZM53.7333 44.95C53.7333 43.8306 53.3243 42.8618 52.5062 42.0437C51.6882 41.2257 50.7194 40.8167 49.6 40.8167C48.4806 40.8167 47.5118 41.2257 46.6937 42.0437C45.8757 42.8618 45.4667 43.8306 45.4667 44.95C45.4667 46.091 45.8703 47.0651 46.6776 47.8724C47.4849 48.6797 48.459 49.0833 49.6 49.0833C50.741 49.0833 51.7151 48.6797 52.5224 47.8724C53.3297 47.0651 53.7333 46.091 53.7333 44.95ZM53.7333 11.8833C53.7333 10.7639 53.3243 9.79514 52.5062 8.97708C51.6882 8.15903 50.7194 7.75 49.6 7.75C48.4806 7.75 47.5118 8.15903 46.6937 8.97708C45.8757 9.79514 45.4667 10.7639 45.4667 11.8833C45.4667 13.0243 45.8703 13.9984 46.6776 14.8057C47.4849 15.613 48.459 16.0167 49.6 16.0167C50.741 16.0167 51.7151 15.613 52.5224 14.8057C53.3297 13.9984 53.7333 13.0243 53.7333 11.8833ZM41.3333 25.4781V31.4521C41.3333 31.6674 41.258 31.8773 41.1073 32.0818C40.9566 32.2863 40.7844 32.3993 40.5906 32.4208L35.5854 33.1958C35.3486 33.9493 35.0042 34.7674 34.5521 35.65C35.284 36.6833 36.2528 37.9212 37.4583 39.3635C37.609 39.6003 37.6844 39.8156 37.6844 40.0094C37.6844 40.2677 37.609 40.4722 37.4583 40.6229C36.9632 41.2687 36.0752 42.2321 34.7943 43.513C33.5134 44.7939 32.6684 45.4344 32.2594 45.4344C32.0226 45.4344 31.7965 45.359 31.5812 45.2083L27.8677 42.3021C27.0712 42.7111 26.2424 43.0448 25.3812 43.3031C25.1444 45.6281 24.8969 47.2965 24.6385 48.3083C24.4878 48.825 24.1649 49.0833 23.6698 49.0833H17.6635C17.4267 49.0833 17.2115 49.0026 17.0177 48.8411C16.824 48.6797 16.7163 48.4913 16.6948 48.276L15.9521 43.3354C15.2201 43.1201 14.4128 42.7865 13.5302 42.3344L9.71979 45.2083C9.5691 45.359 9.35382 45.4344 9.07396 45.4344C8.83715 45.4344 8.61111 45.3483 8.39583 45.176C5.29583 42.3128 3.74583 40.5906 3.74583 40.0094C3.74583 39.8156 3.82118 39.6111 3.97187 39.3958C4.18715 39.0944 4.62847 38.524 5.29583 37.6844C5.96319 36.8448 6.4691 36.1882 6.81354 35.7146C6.3184 34.7674 5.94167 33.8847 5.68333 33.0667L0.775 32.2917C0.559722 32.2701 0.376736 32.1679 0.226042 31.9849C0.0753472 31.8019 0 31.592 0 31.3552V25.3812C0 25.166 0.0753472 24.9561 0.226042 24.7516C0.376736 24.547 0.548958 24.434 0.742708 24.4125L5.74792 23.6375C5.98472 22.884 6.32917 22.066 6.78125 21.1833C6.04931 20.15 5.08056 18.9122 3.875 17.4698C3.72431 17.233 3.64896 17.0177 3.64896 16.824C3.64896 16.5656 3.72431 16.3503 3.875 16.1781C4.34861 15.5323 5.23125 14.5743 6.52292 13.3042C7.81458 12.034 8.66493 11.399 9.07396 11.399C9.31076 11.399 9.53681 11.4743 9.75208 11.625L13.4656 14.5312C14.1976 14.1437 15.0264 13.7993 15.9521 13.4979C16.1889 11.1729 16.4365 9.51528 16.6948 8.525C16.8455 8.00833 17.1684 7.75 17.6635 7.75H23.6698C23.9066 7.75 24.1219 7.83073 24.3156 7.99219C24.5094 8.15365 24.617 8.34201 24.6385 8.55729L25.3812 13.4979C26.1132 13.7132 26.9205 14.0469 27.8031 14.499L31.6135 11.625C31.7858 11.4743 32.001 11.399 32.2594 11.399C32.4962 11.399 32.7222 11.4851 32.9375 11.6573C36.0375 14.5205 37.5875 16.2427 37.5875 16.824C37.5875 16.9962 37.5121 17.2007 37.3615 17.4375C37.1031 17.7819 36.651 18.3632 36.0052 19.1812C35.3594 19.9993 34.875 20.6451 34.5521 21.1187C35.0472 22.1521 35.4132 23.0347 35.65 23.7667L40.5583 24.5094C40.7736 24.5524 40.9566 24.6655 41.1073 24.8484C41.258 25.0314 41.3333 25.2413 41.3333 25.4781ZM62 42.6896V47.2104C62 47.5549 60.3962 47.8885 57.1885 48.2115C56.9302 48.7927 56.6073 49.3524 56.2198 49.8906C57.3177 52.3233 57.8667 53.8087 57.8667 54.3469C57.8667 54.433 57.8236 54.5083 57.7375 54.5729C55.1111 56.1014 53.7764 56.8656 53.7333 56.8656C53.5611 56.8656 53.066 56.3597 52.2479 55.3479C51.4299 54.3361 50.8701 53.6042 50.5687 53.1521C50.1382 53.1951 49.8153 53.2167 49.6 53.2167C49.3847 53.2167 49.0618 53.1951 48.6312 53.1521C48.3299 53.6042 47.7701 54.3361 46.9521 55.3479C46.134 56.3597 45.6389 56.8656 45.4667 56.8656C45.4236 56.8656 44.0889 56.1014 41.4625 54.5729C41.3764 54.5083 41.3333 54.433 41.3333 54.3469C41.3333 53.8087 41.8823 52.3233 42.9802 49.8906C42.5927 49.3524 42.2698 48.7927 42.0115 48.2115C38.8038 47.8885 37.2 47.5549 37.2 47.2104V42.6896C37.2 42.3451 38.8038 42.0115 42.0115 41.6885C42.2913 41.0642 42.6142 40.5045 42.9802 40.0094C41.8823 37.5767 41.3333 36.0913 41.3333 35.5531C41.3333 35.467 41.3764 35.3917 41.4625 35.3271C41.5486 35.284 41.9253 35.0687 42.5927 34.6812C43.2601 34.2938 43.8951 33.9278 44.4979 33.5833C45.1007 33.2389 45.4236 33.0667 45.4667 33.0667C45.6389 33.0667 46.134 33.5672 46.9521 34.5682C47.7701 35.5693 48.3299 36.2958 48.6312 36.7479C49.0618 36.7049 49.3847 36.6833 49.6 36.6833C49.8153 36.6833 50.1382 36.7049 50.5687 36.7479C51.6667 35.2194 52.6569 34.0139 53.5396 33.1312L53.7333 33.0667C53.8194 33.0667 55.1542 33.8201 57.7375 35.3271C57.8236 35.3917 57.8667 35.467 57.8667 35.5531C57.8667 36.0913 57.3177 37.5767 56.2198 40.0094C56.5858 40.5045 56.9087 41.0642 57.1885 41.6885C60.3962 42.0115 62 42.3451 62 42.6896ZM62 9.62292V14.1437C62 14.4882 60.3962 14.8219 57.1885 15.1448C56.9302 15.726 56.6073 16.2858 56.2198 16.824C57.3177 19.2566 57.8667 20.742 57.8667 21.2802C57.8667 21.3663 57.8236 21.4417 57.7375 21.5062C55.1111 23.0347 53.7764 23.799 53.7333 23.799C53.5611 23.799 53.066 23.2931 52.2479 22.2812C51.4299 21.2694 50.8701 20.5375 50.5687 20.0854C50.1382 20.1285 49.8153 20.15 49.6 20.15C49.3847 20.15 49.0618 20.1285 48.6312 20.0854C48.3299 20.5375 47.7701 21.2694 46.9521 22.2812C46.134 23.2931 45.6389 23.799 45.4667 23.799C45.4236 23.799 44.0889 23.0347 41.4625 21.5062C41.3764 21.4417 41.3333 21.3663 41.3333 21.2802C41.3333 20.742 41.8823 19.2566 42.9802 16.824C42.5927 16.2858 42.2698 15.726 42.0115 15.1448C38.8038 14.8219 37.2 14.4882 37.2 14.1437V9.62292C37.2 9.27847 38.8038 8.94479 42.0115 8.62187C42.2913 7.99757 42.6142 7.43785 42.9802 6.94271C41.8823 4.51007 41.3333 3.02465 41.3333 2.48646C41.3333 2.40035 41.3764 2.325 41.4625 2.26042C41.5486 2.21736 41.9253 2.00208 42.5927 1.61458C43.2601 1.22708 43.8951 0.861111 44.4979 0.516667C45.1007 0.172222 45.4236 0 45.4667 0C45.6389 0 46.134 0.500521 46.9521 1.50156C47.7701 2.5026 48.3299 3.22917 48.6312 3.68125C49.0618 3.63819 49.3847 3.61667 49.6 3.61667C49.8153 3.61667 50.1382 3.63819 50.5687 3.68125C51.6667 2.15278 52.6569 0.947222 53.5396 0.0645833L53.7333 0C53.8194 0 55.1542 0.753472 57.7375 2.26042C57.8236 2.325 57.8667 2.40035 57.8667 2.48646C57.8667 3.02465 57.3177 4.51007 56.2198 6.94271C56.5858 7.43785 56.9087 7.99757 57.1885 8.62187C60.3962 8.94479 62 9.27847 62 9.62292Z" fill="black"/>
</svg>
