<svg width="57" height="62" viewBox="0 0 57 62" fill="none" xmlns="http://www.w3.org/2000/svg">
<path d="M8.52843 19.0768C10.2027 19.0767 11.8476 18.636 13.2976 17.7988C14.7475 16.9616 15.9516 15.7575 16.7888 14.3075H51.4518C52.7167 14.3075 53.9298 13.805 54.8242 12.9106C55.7186 12.0162 56.2211 10.8031 56.2211 9.53823C56.2211 8.27334 55.7186 7.06026 54.8242 6.16585C53.9298 5.27144 52.7167 4.76897 51.4518 4.76897H16.7888C15.9516 3.31904 14.7475 2.11502 13.2975 1.27792C11.8475 0.440819 10.2027 0.00012207 8.52843 0.00012207C6.85415 0.00012207 5.20937 0.440819 3.75938 1.27792C2.30939 2.11502 1.10528 3.31904 0.268066 4.76897H8.52843V14.3075H0.268066C1.10523 15.7575 2.30931 16.9616 3.7593 17.7988C5.2093 18.636 6.85411 19.0767 8.52843 19.0768ZM4.45548 39.8421C4.0097 40.289 3.7593 40.8945 3.75917 41.5257V59.6155C3.75917 60.2479 4.0104 60.8545 4.45761 61.3017C4.90481 61.7489 5.51135 62.0001 6.1438 62.0001H13.2977C13.9301 62.0001 14.5367 61.7489 14.9839 61.3017C15.4311 60.8545 15.6823 60.2479 15.6823 59.6155V57.2309H44.2979V59.6155C44.2979 60.2479 44.5491 60.8545 44.9963 61.3017C45.4435 61.7489 46.0501 62.0001 46.6825 62.0001H53.8364C54.4689 62.0001 55.0754 61.7489 55.5226 61.3017C55.9698 60.8545 56.2211 60.2479 56.2211 59.6155V41.5257C56.2209 40.8945 55.9705 40.289 55.5247 39.8421L51.4518 35.7692L44.9942 25.0049C44.782 24.6508 44.4814 24.3577 44.1219 24.1546C43.7624 23.9514 43.3563 23.8451 42.9434 23.846H17.0368C16.6247 23.8459 16.2196 23.9526 15.861 24.1558C15.5024 24.3589 15.2026 24.6514 14.9908 25.0049L8.52843 35.7692L4.45548 39.8421ZM47.3216 38.1538H12.6586L18.3817 28.6153H41.5985L47.3216 38.1538ZM20.4516 46.872V48.6462C20.4516 49.0257 20.3008 49.3896 20.0325 49.6579C19.7642 49.9262 19.4003 50.077 19.0208 50.077H9.95921C9.57974 50.077 9.21582 49.9262 8.9475 49.6579C8.67917 49.3896 8.52843 49.0257 8.52843 48.6462V44.6686C8.52853 44.4569 8.57561 44.2479 8.66626 44.0566C8.75692 43.8653 8.8889 43.6965 9.05268 43.5623C9.21647 43.4282 9.40797 43.3321 9.61339 43.2809C9.81882 43.2298 10.033 43.2248 10.2406 43.2665L18.9207 45.0025C19.3524 45.0895 19.7408 45.3232 20.0199 45.664C20.2989 46.0047 20.4515 46.4316 20.4516 46.872ZM51.4518 45.2505V48.6462C51.4518 49.0257 51.3011 49.3896 51.0327 49.6579C50.7644 49.9262 50.4005 50.077 50.021 50.077H40.9594C40.58 50.077 40.216 49.9262 39.9477 49.6579C39.6794 49.3896 39.5286 49.0257 39.5286 48.6462V46.4809C39.5288 46.1504 39.6434 45.8302 39.8529 45.5746C40.0624 45.319 40.354 45.1438 40.678 45.0788L49.1673 43.3809C49.4442 43.3251 49.73 43.3315 50.0041 43.3996C50.2782 43.4677 50.5337 43.5958 50.7523 43.7747C50.9709 43.9536 51.147 44.1787 51.2679 44.4339C51.3889 44.6892 51.4517 44.968 51.4518 45.2505Z" fill="black"/>
</svg>
