<svg width="63" height="64" viewBox="0 0 63 64" fill="none" xmlns="http://www.w3.org/2000/svg">
<path d="M31.1217 17.0625C28.2808 17.0625 25.5037 17.9202 23.1415 19.5273C20.7794 21.1343 18.9384 23.4184 17.8512 26.0908C16.764 28.7631 16.4796 31.7037 17.0338 34.5407C17.588 37.3777 18.9561 39.9836 20.9649 42.0289C22.9737 44.0743 25.5331 45.4672 28.3194 46.0315C31.1057 46.5958 33.9938 46.3062 36.6185 45.1992C39.2431 44.0923 41.4864 42.2178 43.0648 39.8127C44.6431 37.4076 45.4855 34.5801 45.4855 31.6875C45.4815 27.8099 43.9669 24.0924 41.274 21.3505C38.5812 18.6087 34.93 17.0665 31.1217 17.0625ZM31.1217 41.4375C29.2277 41.4375 27.3763 40.8657 25.8016 39.7943C24.2268 38.723 22.9995 37.2002 22.2747 35.4187C21.5499 33.6371 21.3603 31.6767 21.7298 29.7854C22.0992 27.8941 23.0113 26.1568 24.3505 24.7932C25.6897 23.4296 27.3959 22.501 29.2535 22.1248C31.111 21.7486 33.0364 21.9417 34.7862 22.6797C36.536 23.4176 38.0315 24.6673 39.0837 26.2707C40.1359 27.8741 40.6975 29.7591 40.6975 31.6875C40.6975 34.2734 39.6887 36.7533 37.8928 38.5818C36.097 40.4103 33.6613 41.4375 31.1217 41.4375ZM45.4855 0H16.7578C12.3148 0.00483912 8.05517 1.80404 4.9135 5.00284C1.77183 8.20163 0.00475271 12.5387 0 17.0625V46.3125C0.00475271 50.8363 1.77183 55.1734 4.9135 58.3722C8.05517 61.571 12.3148 63.3702 16.7578 63.375H45.4855C49.9285 63.3702 54.1881 61.571 57.3298 58.3722C60.4715 55.1734 62.2386 50.8363 62.2433 46.3125V17.0625C62.2386 12.5387 60.4715 8.20163 57.3298 5.00284C54.1881 1.80404 49.9285 0.00483912 45.4855 0ZM57.4554 46.3125C57.4554 49.5448 56.1943 52.6448 53.9495 54.9304C51.7047 57.216 48.6601 58.5 45.4855 58.5H16.7578C13.5832 58.5 10.5386 57.216 8.29384 54.9304C6.04905 52.6448 4.78795 49.5448 4.78795 46.3125V17.0625C4.78795 13.8302 6.04905 10.7302 8.29384 8.44464C10.5386 6.15904 13.5832 4.875 16.7578 4.875H45.4855C48.6601 4.875 51.7047 6.15904 53.9495 8.44464C56.1943 10.7302 57.4554 13.8302 57.4554 17.0625V46.3125ZM50.2734 15.8438C50.2734 16.5669 50.0628 17.2738 49.6683 17.8751C49.2737 18.4763 48.7128 18.945 48.0567 19.2217C47.4005 19.4984 46.6785 19.5708 45.9819 19.4297C45.2853 19.2887 44.6455 18.9404 44.1433 18.4291C43.6411 17.9178 43.2991 17.2663 43.1605 16.5571C43.022 15.8478 43.0931 15.1127 43.3649 14.4446C43.6367 13.7765 44.0969 13.2054 44.6875 12.8037C45.278 12.4019 45.9723 12.1875 46.6825 12.1875C47.6349 12.1875 48.5482 12.5727 49.2217 13.2584C49.8951 13.9441 50.2734 14.8741 50.2734 15.8438Z" fill="white"/>
</svg>
