<svg width="42" height="43" viewBox="0 0 42 43" fill="none" xmlns="http://www.w3.org/2000/svg">
<path d="M20.847 11.5275C18.944 11.5275 17.0837 12.1021 15.5015 13.1786C13.9192 14.255 12.6859 15.7851 11.9577 17.5752C11.2295 19.3653 11.0389 21.335 11.4102 23.2354C11.7814 25.1357 12.6978 26.8813 14.0434 28.2514C15.389 29.6215 17.1035 30.5545 18.9699 30.9325C20.8363 31.3106 22.7709 31.1165 24.529 30.3751C26.2872 29.6336 27.7899 28.3779 28.8471 26.7669C29.9044 25.1558 30.4687 23.2618 30.4687 21.3242C30.466 18.7268 29.4515 16.2365 27.6476 14.3999C25.8438 12.5632 23.398 11.5302 20.847 11.5275ZM20.847 27.8552C19.5783 27.8552 18.3382 27.4722 17.2833 26.7546C16.2284 26.0369 15.4063 25.0169 14.9208 23.8235C14.4353 22.6301 14.3083 21.3169 14.5558 20.05C14.8033 18.7831 15.4142 17.6194 16.3113 16.706C17.2084 15.7926 18.3513 15.1706 19.5956 14.9186C20.8399 14.6666 22.1296 14.7959 23.3017 15.2902C24.4738 15.7845 25.4756 16.6217 26.1804 17.6957C26.8852 18.7697 27.2614 20.0324 27.2614 21.3242C27.2614 23.0563 26.5856 24.7175 25.3827 25.9423C24.1797 27.1671 22.5482 27.8552 20.847 27.8552ZM30.4687 0.0981445H11.2253C8.24914 0.101386 5.39579 1.30659 3.29133 3.44932C1.18687 5.59204 0.00318363 8.49727 0 11.5275V31.1208C0.00318363 34.1511 1.18687 37.0563 3.29133 39.199C5.39579 41.3417 8.24914 42.5469 11.2253 42.5502H30.4687C33.4448 42.5469 36.2982 41.3417 38.4026 39.199C40.5071 37.0563 41.6908 34.1511 41.694 31.1208V11.5275C41.6908 8.49727 40.5071 5.59204 38.4026 3.44932C36.2982 1.30659 33.4448 0.101386 30.4687 0.0981445ZM38.4867 31.1208C38.4867 33.286 37.642 35.3625 36.1383 36.8935C34.6346 38.4245 32.5952 39.2846 30.4687 39.2846H11.2253C9.09877 39.2846 7.05935 38.4245 5.55567 36.8935C4.05199 35.3625 3.20723 33.286 3.20723 31.1208V11.5275C3.20723 9.36235 4.05199 7.28584 5.55567 5.75482C7.05935 4.2238 9.09877 3.36369 11.2253 3.36369H30.4687C32.5952 3.36369 34.6346 4.2238 36.1383 5.75482C37.642 7.28584 38.4867 9.36235 38.4867 11.5275V31.1208ZM33.6759 10.7112C33.6759 11.1955 33.5348 11.6691 33.2705 12.0718C33.0062 12.4746 32.6305 12.7885 32.191 12.9739C31.7515 13.1592 31.2678 13.2078 30.8012 13.1132C30.3346 13.0187 29.906 12.7855 29.5696 12.443C29.2332 12.1004 29.0041 11.6641 28.9113 11.189C28.8185 10.7139 28.8661 10.2214 29.0482 9.7739C29.2302 9.32638 29.5385 8.94387 29.9341 8.67475C30.3297 8.40564 30.7947 8.262 31.2705 8.262C31.9084 8.262 32.5203 8.52003 32.9714 8.97934C33.4225 9.43864 33.6759 10.0616 33.6759 10.7112Z" fill="black"/>
</svg>
