<svg width="41" height="41" viewBox="0 0 41 41" fill="none" xmlns="http://www.w3.org/2000/svg">
<path d="M29.188 24.6848C28.7031 24.4357 26.2877 23.2525 25.8385 23.0924C25.3892 22.9233 25.06 22.8433 24.7353 23.3415C24.4061 23.8352 23.472 24.9339 23.1784 25.2676C22.8937 25.5967 22.6046 25.6368 22.1197 25.3921C19.2373 23.9509 17.3468 22.821 15.4474 19.5605C14.9447 18.693 15.95 18.7553 16.8886 16.8826C17.0487 16.5534 16.9687 16.2732 16.8441 16.0241C16.7196 15.775 15.7409 13.364 15.3317 12.381C14.9358 11.4246 14.5266 11.558 14.2285 11.5403C13.9438 11.5225 13.6191 11.5225 13.2899 11.5225C12.9608 11.5225 12.4314 11.647 11.9822 12.1319C11.5329 12.6256 10.2651 13.8133 10.2651 16.2243C10.2651 18.6352 12.0222 20.9706 12.2624 21.2997C12.5115 21.6289 15.7187 26.5754 20.6429 28.7061C23.7567 30.0494 24.9755 30.1651 26.5324 29.9338C27.4799 29.7914 29.4327 28.7505 29.8375 27.5985C30.2422 26.4508 30.2422 25.4677 30.1221 25.2631C30.002 25.0452 29.6729 24.9206 29.188 24.6848Z" fill="black"/>
<path d="M38.605 13.0527C37.5997 10.664 36.1585 8.51992 34.3213 6.67834C32.4842 4.84121 30.3401 3.39553 27.947 2.39467C25.5004 1.36713 22.9027 0.84668 20.2248 0.84668H20.1358C17.4402 0.860024 14.8291 1.39381 12.3736 2.4436C10.0027 3.4578 7.87646 4.89904 6.05713 6.73617C4.23779 8.57329 2.8099 10.7085 1.82239 13.0883C0.799292 15.5526 0.283294 18.1726 0.296639 20.8683C0.309984 23.9554 1.04839 27.0202 2.4318 29.7603V36.5217C2.4318 37.6515 3.34814 38.5679 4.478 38.5679H11.2438C13.9839 39.9513 17.0488 40.6897 20.1358 40.703H20.2293C22.8938 40.703 25.4782 40.187 27.9114 39.1773C30.2912 38.1853 32.4308 36.7619 34.2635 34.9425C36.1006 33.1232 37.5463 30.9969 38.5561 28.626C39.6059 26.1706 40.1396 23.5595 40.153 20.8638C40.1663 18.1548 39.6414 15.5259 38.605 13.0527ZM31.8837 32.536C28.7655 35.6231 24.6286 37.3224 20.2248 37.3224H20.1492C17.4669 37.309 14.8024 36.6418 12.4493 35.3874L12.0756 35.1872H5.81247V28.9241L5.6123 28.5504C4.35789 26.1973 3.69066 23.5328 3.67731 20.8505C3.65952 16.4156 5.3543 12.252 8.46363 9.11598C11.5685 5.97996 15.7187 4.24514 20.1536 4.22735H20.2293C22.4534 4.22735 24.6108 4.65883 26.6436 5.5129C28.6276 6.34472 30.4069 7.5413 31.9371 9.0715C33.4628 10.5972 34.6638 12.381 35.4957 14.3649C36.3586 16.42 36.7901 18.5997 36.7812 20.8505C36.7545 25.2809 35.0153 29.4312 31.8837 32.536Z" fill="black"/>
</svg>
