<svg width="60" height="60" viewBox="0 0 60 60" fill="none" xmlns="http://www.w3.org/2000/svg">
<path d="M43.2565 35.8371C42.5327 35.4652 38.9269 33.6988 38.2562 33.4598C37.5855 33.2074 37.094 33.0879 36.6093 33.8316C36.1179 34.5688 34.7233 36.209 34.2851 36.707C33.8601 37.1984 33.4284 37.2582 32.7046 36.893C28.4015 34.7414 25.5792 33.0547 22.7437 28.1871C21.9933 26.8922 23.494 26.9852 24.8952 24.1895C25.1343 23.698 25.0147 23.2797 24.8288 22.9078C24.6429 22.5359 23.1819 18.9367 22.571 17.4691C21.98 16.0414 21.369 16.2406 20.9241 16.2141C20.4991 16.1875 20.0144 16.1875 19.5229 16.1875C19.0315 16.1875 18.2413 16.3734 17.5706 17.0973C16.8999 17.8344 15.0073 19.6074 15.0073 23.2066C15.0073 26.8059 17.6304 30.2922 17.989 30.7836C18.3608 31.275 23.1487 38.6594 30.4999 41.8402C35.1483 43.8457 36.9679 44.0184 39.2921 43.6731C40.7065 43.4606 43.6218 41.9066 44.2261 40.1867C44.8304 38.4734 44.8304 37.0059 44.6511 36.7004C44.4718 36.375 43.9804 36.1891 43.2565 35.8371Z" fill="white"/>
<path d="M57.3144 18.4719C55.8137 14.9059 53.6621 11.7051 50.9195 8.95586C48.1769 6.21328 44.9762 4.05508 41.4035 2.56094C37.7512 1.02695 33.873 0.25 29.8754 0.25H29.7426C25.7183 0.269922 21.8203 1.0668 18.1547 2.63398C14.6152 4.14805 11.441 6.29961 8.72499 9.04219C6.00897 11.7848 3.87733 14.9723 2.40311 18.525C0.875768 22.2039 0.105455 26.1152 0.125377 30.1395C0.145299 34.748 1.24764 39.3234 3.31288 43.4141V53.5078C3.31288 55.1945 4.68085 56.5625 6.36756 56.5625H16.468C20.5586 58.6277 25.134 59.7301 29.7426 59.75H29.882C33.8597 59.75 37.718 58.9797 41.3504 57.4723C44.9031 55.9914 48.0973 53.8664 50.8332 51.1504C53.5758 48.4344 55.734 45.2602 57.2414 41.7207C58.8086 38.0551 59.6055 34.157 59.6254 30.1328C59.6453 26.0887 58.8617 22.1641 57.3144 18.4719ZM47.2805 47.5578C42.6254 52.1664 36.4496 54.7031 29.8754 54.7031H29.7625C25.7582 54.6832 21.7805 53.6871 18.2676 51.8145L17.7098 51.5156H8.35975V42.1656L8.06092 41.6078C6.18827 38.0949 5.19217 34.1172 5.17225 30.1129C5.14569 23.4922 7.67577 17.2766 12.3176 12.5949C16.9527 7.91328 23.1484 5.32344 29.7691 5.29688H29.882C33.2023 5.29688 36.423 5.94102 39.4578 7.21602C42.4195 8.45781 45.0758 10.2441 47.3601 12.5285C49.6379 14.8062 51.4308 17.4691 52.6726 20.4309C53.9609 23.4988 54.6051 26.7527 54.5918 30.1129C54.5519 36.727 51.9555 42.9227 47.2805 47.5578Z" fill="white"/>
</svg>
